<svg xmlns="http://www.w3.org/2000/svg" viewBox="0 0 500 500">
  <!-- 定义渐变和效果 -->
  <defs>
    <!-- 背景渐变 -->
    <linearGradient id="bgGradient" x1="0%" y1="0%" x2="100%" y2="100%">
      <stop offset="0%" stop-color="#0F0B30" />
      <stop offset="100%" stop-color="#1D0F45" />
    </linearGradient>
    
    <!-- 主体顶部渐变 -->
    <linearGradient id="topGradient" x1="0%" y1="0%" x2="100%" y2="100%">
      <stop offset="0%" stop-color="#00C2FF" />
      <stop offset="100%" stop-color="#9B4BFF" />
    </linearGradient>
    
    <!-- 主体侧面渐变 -->
    <linearGradient id="sideGradient" x1="0%" y1="0%" x2="100%" y2="100%">
      <stop offset="0%" stop-color="#FF4B9B" />
      <stop offset="100%" stop-color="#FF007A" />
    </linearGradient>
    
    <!-- 内部环形渐变 -->
    <linearGradient id="innerGradient" x1="0%" y1="0%" x2="100%" y2="100%">
      <stop offset="0%" stop-color="#FF007A" />
      <stop offset="100%" stop-color="#9B4BFF" />
    </linearGradient>
    
    <!-- 发光效果 -->
    <filter id="glow" x="-50%" y="-50%" width="200%" height="200%">
      <feGaussianBlur in="SourceGraphic" stdDeviation="10" result="blur" />
      <feComposite in="SourceGraphic" in2="blur" operator="over" />
    </filter>
  </defs>
  
  <!-- 背景 -->
  <rect width="500" height="500" fill="url(#bgGradient)" />
  
  <!-- 3D立体环形 -->
  <g transform="translate(250, 250) rotate(-25)">
    <!-- 发光效果底层 -->
    <ellipse cx="0" cy="0" rx="150" ry="70" fill="#FF007A" opacity="0.2" filter="url(#glow)" />
    
    <!-- 侧面圆柱体 -->
    <g>
      <path d="M-150,0 A150,70 0 0,0 150,0 A150,70 0 0,0 -150,0 L-150,60 A150,70 0 0,0 150,60 A150,70 0 0,0 -150,60 Z" fill="url(#sideGradient)" />
    </g>
    
    <!-- 顶部椭圆 -->
    <ellipse cx="0" cy="0" rx="150" ry="70" fill="url(#topGradient)" />
    
    <!-- 内部椭圆切口 -->
    <ellipse cx="0" cy="0" rx="80" ry="35" fill="white" />
    
    <!-- 最内部椭圆 -->
    <ellipse cx="0" cy="0" rx="40" ry="18" fill="url(#innerGradient)" />
  </g>
</svg> 